<svg xmlns="http://www.w3.org/2000/svg" width="512" height="510.299" viewBox="0 0 512 510.299">
  <g id="logout" transform="translate(0 -0.85)">
    <g id="Group_2" data-name="Group 2">
      <g id="Group_1" data-name="Group 1">
        <path id="Path_1" data-name="Path 1" d="M255.15,468.625H63.787a21.27,21.27,0,0,1-21.262-21.262V64.638A21.27,21.27,0,0,1,63.787,43.376H255.15a21.263,21.263,0,0,0,0-42.526H63.787A63.866,63.866,0,0,0,0,64.638V447.362a63.865,63.865,0,0,0,63.787,63.787H255.15a21.262,21.262,0,0,0,0-42.524Z" fill="#fff"/>
      </g>
    </g>
    <g id="Group_4" data-name="Group 4">
      <g id="Group_3" data-name="Group 3">
        <path id="Path_2" data-name="Path 2" d="M505.664,240.861,376.388,113.286a21.26,21.26,0,1,0-29.852,30.278l92.385,91.173H191.362a21.262,21.262,0,0,0,0,42.525H438.921l-92.385,91.173a21.259,21.259,0,1,0,29.852,30.277L505.664,271.137a21.252,21.252,0,0,0,0-30.276Z" fill="#fff"/>
      </g>
    </g>
  </g>
</svg>
