<svg xmlns="http://www.w3.org/2000/svg" width="24" height="24" viewBox="0 0 24 24">
  <path id="settings" d="M19.85,8.75,24,9.58v4.84l-4.15.83,2.35,3.52L18.77,22.2l-3.52-2.35L14.42,24H9.58l-.83-4.15L5.23,22.2,1.8,18.77l2.35-3.52L0,14.42V9.58l4.15-.83L1.8,5.23,5.23,1.8,8.75,4.15,9.58,0h4.84l.83,4.15L18.77,1.8,22.2,5.23Zm-1.57,5.07,4-.81v-2l-4-.81-.54-1.3,2.29-3.43L18.6,4.04,15.17,6.33l-1.3-.54-.81-4h-2l-.81,4-1.3.54L5.52,4.04,4.09,5.47,6.38,8.9l-.54,1.3-4,.81v2l4,.81.54,1.3L4.09,18.55l1.43,1.43,3.43-2.29,1.3.54.81,4h2l.81-4,1.3-.54,3.43,2.29,1.43-1.43-2.29-3.43.54-1.3ZM10.094,9.148a3.43,3.43,0,1,1-1.263,4.164,3.43,3.43,0,0,1,1.263-4.164Zm.956,4.274a1.71,1.71,0,1,0-.63-2.076,1.709,1.709,0,0,0,.63,2.076Z" fill="#fff" fill-rule="evenodd"/>
</svg>
