<svg xmlns="http://www.w3.org/2000/svg" width="679.913" height="673.372" viewBox="0 0 679.913 673.372">
  <g id="Logo_Colours" transform="translate(-152.865 -40.122)">
    <g id="Group_6" data-name="Group 6">
      <path id="Path_8" data-name="Path 8" d="M384.7,81.2c-10.1,8.1-73.1,72.1-119.5,118.9a6.125,6.125,0,0,0,.6-.5s-40.8,45.2,9,94.5c15.1,15,43,42.8,75,74.8,59.3-59.2,185.7-185.3,224.9-224.8,49.4-49.8,94.5-9,94.5-9S530.3-36.1,384.7,81.2Z"/>
      <path id="Path_9" data-name="Path 9" d="M787.7,254.2c-8.1-10.1-72.1-73.1-118.9-119.5a6.122,6.122,0,0,0,.5.6s-45.2-40.8-94.5,9c-15,15.1-42.8,43-74.8,75C559.2,278.6,685.3,405,724.8,444.2c49.8,49.4,9,94.5,9,94.5S905,399.8,787.7,254.2Z" transform="translate(4 18)"/>
      <path id="Path_10" data-name="Path 10" d="M614.9,657.4c10.1-8.1,73.1-72.1,119.5-118.9a6.114,6.114,0,0,0-.6.5s40.8-45.2-9-94.5c-15.1-15-43-42.8-75-74.8C590.5,428.9,464.2,555,425,594.6c-49.4,49.8-94.5,9-94.5,9S469.4,774.7,614.9,657.4Z" transform="translate(-11 15)"/>
      <path id="Path_11" data-name="Path 11" d="M211.9,484.3c8.1,10.1,72.1,73.1,118.9,119.5a6.114,6.114,0,0,0-.5-.6s45.2,40.8,94.5-9c15-15.1,42.8-43,74.8-75-59.2-59.3-185.3-185.7-224.8-224.9-49.8-49.4-9-94.5-9-94.5S94.7,338.8,211.9,484.3Z" transform="translate(-18 2)"/>
    </g>
  </g>
</svg>
